<svg viewBox="0 0 1920 400" xmlns="http://www.w3.org/2000/svg" preserveAspectRatio="xMidYMax slice">
  <defs>
    <linearGradient id="fade" x1="0" y1="0" x2="0" y2="1">
      <stop offset="0%" stop-color="#000" stop-opacity="0"/>
      <stop offset="70%" stop-color="#000" stop-opacity="0.6"/>
      <stop offset="100%" stop-color="#000" stop-opacity="0.85"/>
    </linearGradient>
  </defs>
  <!-- Distant snow-capped peaks -->
  <polygon points="0,400 120,160 280,400" fill="#0e2233" opacity="0.7"/>
  <polygon points="180,400 380,80 560,400" fill="#0a1a2e" opacity="0.9"/>
  <polygon points="440,400 620,110 800,400" fill="#0e2233" opacity="0.8"/>
  <polygon points="700,400 900,50 1100,400" fill="#0a1a2e" opacity="0.95"/>
  <polygon points="980,400 1150,130 1320,400" fill="#0e2233" opacity="0.8"/>
  <polygon points="1200,400 1380,90 1560,400" fill="#0a1a2e" opacity="0.9"/>
  <polygon points="1480,400 1640,140 1800,400" fill="#0e2233" opacity="0.75"/>
  <polygon points="1700,400 1820,180 1920,350 1920,400" fill="#0a1a2e" opacity="0.8"/>
  <!-- Snow caps -->
  <polygon points="380,80 340,140 420,140" fill="#c8e0f0" opacity="0.45"/>
  <polygon points="900,50 855,120 945,120" fill="#c8e0f0" opacity="0.5"/>
  <polygon points="1380,90 1340,155 1420,155" fill="#c8e0f0" opacity="0.45"/>
  <!-- Fade overlay -->
  <rect width="1920" height="400" fill="url(#fade)"/>
</svg>
