<svg viewBox="0 0 1920 200" xmlns="http://www.w3.org/2000/svg" preserveAspectRatio="xMidYMax slice">
  <!-- Rocky shore foreground -->
  <path d="M0,120 Q80,95 160,110 Q240,125 320,100 Q400,75 480,105 Q560,130 640,108 Q720,85 800,110 Q880,130 960,105 Q1040,80 1120,108 Q1200,130 1280,102 Q1360,75 1440,108 Q1520,135 1600,105 Q1680,80 1760,112 Q1840,138 1920,110 L1920,200 L0,200 Z" fill="#040e1a" opacity="0.9"/>
  <!-- Rocks -->
  <ellipse cx="120" cy="118" rx="35" ry="14" fill="#030c16" opacity="0.8"/>
  <ellipse cx="550" cy="112" rx="28" ry="11" fill="#030c16" opacity="0.7"/>
  <ellipse cx="960" cy="108" rx="42" ry="15" fill="#030c16" opacity="0.85"/>
  <ellipse cx="1400" cy="115" rx="30" ry="12" fill="#030c16" opacity="0.75"/>
  <ellipse cx="1800" cy="118" rx="25" ry="10" fill="#030c16" opacity="0.7"/>
  <!-- Wave crests -->
  <path d="M0,100 Q48,88 96,100 Q144,112 192,100 Q240,88 288,100 Q336,112 384,100 Q432,88 480,100 Q528,112 576,100 Q624,88 672,100 Q720,112 768,100 Q816,88 864,100 Q912,112 960,100 Q1008,88 1056,100 Q1104,112 1152,100 Q1200,88 1248,100 Q1296,112 1344,100 Q1392,88 1440,100 Q1488,112 1536,100 Q1584,88 1632,100 Q1680,112 1728,100 Q1776,88 1824,100 Q1872,112 1920,100" fill="none" stroke="#1a4a6e" stroke-width="2" opacity="0.5"/>
</svg>
