<svg viewBox="0 0 1920 160" xmlns="http://www.w3.org/2000/svg" preserveAspectRatio="xMidYMax slice">
  <!-- Mediterranean sea waves -->
  <rect x="0" y="80" width="1920" height="80" fill="#071220" opacity="0.85"/>
  <!-- Wave pattern -->
  <path d="M0,65 Q60,50 120,65 Q180,80 240,65 Q300,50 360,65 Q420,80 480,65 Q540,50 600,65 Q660,80 720,65 Q780,50 840,65 Q900,80 960,65 Q1020,50 1080,65 Q1140,80 1200,65 Q1260,50 1320,65 Q1380,80 1440,65 Q1500,50 1560,65 Q1620,80 1680,65 Q1740,50 1800,65 Q1860,80 1920,65 L1920,90 L0,90Z" fill="#07121e" opacity="0.9"/>
  <!-- Second wave -->
  <path d="M0,78 Q80,62 160,78 Q240,94 320,78 Q400,62 480,78 Q560,94 640,78 Q720,62 800,78 Q880,94 960,78 Q1040,62 1120,78 Q1200,94 1280,78 Q1360,62 1440,78 Q1520,94 1600,78 Q1680,62 1760,78 Q1840,94 1920,78 L1920,100 L0,100Z" fill="#060e1a" opacity="0.75"/>
  <!-- White caps -->
  <g fill="white" opacity="0.08">
    <path d="M100,66 Q130,58 160,66"/><path d="M400,64 Q430,56 460,64"/>
    <path d="M700,66 Q730,58 760,66"/><path d="M1000,64 Q1030,56 1060,64"/>
    <path d="M1300,66 Q1330,58 1360,66"/><path d="M1600,64 Q1630,56 1660,64"/>
  </g>
  <!-- Rocky coastline edge -->
  <path d="M0,72 Q100,60 200,70 Q300,80 400,64 Q500,50 600,68 Q700,85 800,65 Q900,48 1000,68 Q1100,86 1200,65 Q1300,48 1400,68 Q1500,85 1600,65 Q1700,48 1800,68 Q1870,80 1920,70 L1920,80 L0,80Z" fill="#0a1828" opacity="0.7"/>
</svg>
