<svg viewBox="0 0 1920 240" xmlns="http://www.w3.org/2000/svg" preserveAspectRatio="xMidYMax slice">
  <defs>
    <linearGradient id="fade" x1="0" y1="0" x2="0" y2="1">
      <stop offset="0%" stop-color="#000" stop-opacity="0"/>
      <stop offset="100%" stop-color="#000" stop-opacity="0.6"/>
    </linearGradient>
  </defs>
  <!-- Mid-ground buildings with window grids -->
  <g fill="#0d0a28" opacity="0.9">
    <rect x="0" y="80" width="100" height="160"/>
    <rect x="110" y="50" width="120" height="190"/>
    <rect x="240" y="100" width="90" height="140"/>
    <rect x="340" y="60" width="140" height="180"/>
    <rect x="490" y="90" width="100" height="150"/>
    <rect x="600" y="40" width="160" height="200"/>
    <rect x="770" y="80" width="110" height="160"/>
    <rect x="890" y="55" width="130" height="185"/>
    <rect x="1030" y="85" width="100" height="155"/>
    <rect x="1140" y="45" width="150" height="195"/>
    <rect x="1300" y="75" width="120" height="165"/>
    <rect x="1430" y="50" width="140" height="190"/>
    <rect x="1580" y="80" width="105" height="160"/>
    <rect x="1695" y="55" width="130" height="185"/>
    <rect x="1835" y="70" width="85" height="170"/>
  </g>
  <!-- Window lights grid pattern -->
  <g fill="#6d28d9" opacity="0.12">
    <rect x="115" y="58" width="110" height="180"/>
    <rect x="345" y="68" width="130" height="170"/>
    <rect x="605" y="48" width="150" height="188"/>
    <rect x="895" y="62" width="120" height="175"/>
    <rect x="1145" y="52" width="140" height="185"/>
    <rect x="1435" y="58" width="130" height="178"/>
    <rect x="1700" y="62" width="120" height="172"/>
  </g>
  <rect width="1920" height="240" fill="url(#fade)"/>
</svg>
