<svg viewBox="0 0 1920 160" xmlns="http://www.w3.org/2000/svg" preserveAspectRatio="xMidYMax slice">
  <!-- Ground -->
  <rect x="0" y="120" width="1920" height="40" fill="#100303" opacity="0.9"/>
  <!-- Barbed wire -->
  <line x1="0" y1="100" x2="1920" y2="100" stroke="#1a0505" stroke-width="2" opacity="0.6"/>
  <line x1="0" y1="108" x2="1920" y2="108" stroke="#1a0505" stroke-width="2" opacity="0.5"/>
  <!-- Barbs -->
  <g stroke="#1a0505" stroke-width="2" opacity="0.55">
    <line x1="100" y1="96" x2="110" y2="104"/><line x1="100" y1="104" x2="110" y2="96"/>
    <line x1="200" y1="96" x2="210" y2="104"/><line x1="200" y1="104" x2="210" y2="96"/>
    <line x1="300" y1="96" x2="310" y2="104"/><line x1="300" y1="104" x2="310" y2="96"/>
    <line x1="400" y1="96" x2="410" y2="104"/><line x1="400" y1="104" x2="410" y2="96"/>
    <line x1="500" y1="96" x2="510" y2="104"/><line x1="500" y1="104" x2="510" y2="96"/>
    <line x1="600" y1="96" x2="610" y2="104"/><line x1="600" y1="104" x2="610" y2="96"/>
    <line x1="700" y1="96" x2="710" y2="104"/><line x1="700" y1="104" x2="710" y2="96"/>
    <line x1="800" y1="96" x2="810" y2="104"/><line x1="800" y1="104" x2="810" y2="96"/>
    <line x1="900" y1="96" x2="910" y2="104"/><line x1="900" y1="104" x2="910" y2="96"/>
    <line x1="1000" y1="96" x2="1010" y2="104"/><line x1="1000" y1="104" x2="1010" y2="96"/>
    <line x1="1100" y1="96" x2="1110" y2="104"/><line x1="1100" y1="104" x2="1110" y2="96"/>
    <line x1="1200" y1="96" x2="1210" y2="104"/><line x1="1200" y1="104" x2="1210" y2="96"/>
    <line x1="1300" y1="96" x2="1310" y2="104"/><line x1="1300" y1="104" x2="1310" y2="96"/>
    <line x1="1400" y1="96" x2="1410" y2="104"/><line x1="1400" y1="104" x2="1410" y2="96"/>
    <line x1="1500" y1="96" x2="1510" y2="104"/><line x1="1500" y1="104" x2="1510" y2="96"/>
    <line x1="1600" y1="96" x2="1610" y2="104"/><line x1="1600" y1="104" x2="1610" y2="96"/>
    <line x1="1700" y1="96" x2="1710" y2="104"/><line x1="1700" y1="104" x2="1710" y2="96"/>
    <line x1="1800" y1="96" x2="1810" y2="104"/><line x1="1800" y1="104" x2="1810" y2="96"/>
  </g>
  <!-- Sandbag mounds -->
  <g fill="#100303" opacity="0.85">
    <ellipse cx="200" cy="120" rx="55" ry="18"/>
    <ellipse cx="195" cy="112" rx="42" ry="14"/>
    <ellipse cx="700" cy="120" rx="60" ry="18"/>
    <ellipse cx="695" cy="112" rx="48" ry="14"/>
    <ellipse cx="1300" cy="120" rx="55" ry="18"/>
    <ellipse cx="1295" cy="112" rx="42" ry="14"/>
    <ellipse cx="1750" cy="120" rx="50" ry="16"/>
  </g>
  <!-- Debris chunks -->
  <g fill="#150404" opacity="0.7">
    <rect x="450" y="112" width="22" height="14" transform="rotate(-15,461,119)"/>
    <rect x="900" y="115" width="18" height="12" transform="rotate(20,909,121)"/>
    <rect x="1100" y="110" width="25" height="15" transform="rotate(-10,1112,117)"/>
    <rect x="1600" y="113" width="20" height="13" transform="rotate(12,1610,119)"/>
  </g>
</svg>
