<svg viewBox="0 0 1920 160" xmlns="http://www.w3.org/2000/svg" preserveAspectRatio="xMidYMax slice">
  <!-- Stone wall base -->
  <rect x="0" y="110" width="1920" height="50" fill="#060e07" opacity="0.85"/>
  <!-- Stone texture blocks -->
  <g fill="#040b05" opacity="0.6">
    <rect x="10" y="110" width="55" height="22"/><rect x="72" y="110" width="50" height="22"/>
    <rect x="130" y="110" width="60" height="22"/><rect x="198" y="110" width="48" height="22"/>
    <rect x="254" y="110" width="55" height="22"/><rect x="317" y="110" width="52" height="22"/>
    <rect x="376" y="110" width="58" height="22"/><rect x="442" y="110" width="50" height="22"/>
    <rect x="30" y="132" width="52" height="18"/><rect x="90" y="132" width="58" height="18"/>
    <rect x="156" y="132" width="48" height="18"/><rect x="212" y="132" width="55" height="18"/>
  </g>
  <!-- Fog wisps -->
  <ellipse cx="200" cy="100" rx="220" ry="40" fill="#1a2e1a" opacity="0.18"/>
  <ellipse cx="700" cy="90" rx="280" ry="45" fill="#1a2e1a" opacity="0.15"/>
  <ellipse cx="1200" cy="95" rx="260" ry="42" fill="#1a2e1a" opacity="0.17"/>
  <ellipse cx="1700" cy="85" rx="240" ry="38" fill="#1a2e1a" opacity="0.14"/>
  <!-- Torch flames (simple orange dots) -->
  <ellipse cx="380" cy="108" rx="6" ry="10" fill="#b45309" opacity="0.6"/>
  <ellipse cx="900" cy="108" rx="6" ry="10" fill="#b45309" opacity="0.6"/>
  <ellipse cx="1420" cy="108" rx="6" ry="10" fill="#b45309" opacity="0.6"/>
</svg>
